<svg xmlns="http://www.w3.org/2000/svg" width="227" height="181" fill="none"><g clip-path="url(#clip0)" opacity=".2"><path fill="#4A4A4A" d="M103.173 39.003h-2.1v-2.1c0-.3-.3-.6-.6-.6s-.6.3-.6.6v2.1h-2.1c-.3 0-.6.3-.6.6s.3.6.6.6h2.1v2.1c0 .3.3.6.6.6s.6-.3.6-.6v-2.1h2.1c.3 0 .6-.3.6-.6s-.2-.6-.6-.6zM204.373 76.504h-1.3v-1.3c0-.3-.3-.6-.6-.6s-.6.3-.6.6v1.3h-1.3c-.3 0-.6.3-.6.6s.3.6.6.6h1.3v1.3c0 .3.3.6.6.6s.6-.3.6-.6v-1.3h1.3c.3 0 .6-.3.6-.6s-.2-.6-.6-.6zM32.173 45.403h-1.3v-1.3c0-.3-.3-.6-.6-.6s-.6.3-.6.6v1.3h-1.3c-.3 0-.6.3-.6.6s.3.6.6.6h1.3v1.3c0 .3.3.6.6.6s.6-.3.6-.6v-1.3h1.3c.3 0 .6-.3.6-.6s-.2-.6-.6-.6zM56.773 109.203h-2.1v-2.1c0-.3-.3-.6-.6-.6s-.6.3-.6.6v2.1h-2.1c-.3 0-.6.3-.6.6s.3.6.6.6h2v2.1c0 .3.3.6.6.6s.6-.3.6-.6v-2.1h2.1c.3 0 .6-.3.6-.6s-.2-.6-.5-.6zM161.073 162.703h-2.1v-2.1c0-.3-.3-.6-.6-.6s-.6.3-.6.6v2.1h-2.1c-.3 0-.6.3-.6.6s.3.6.6.6h2.1v2.1c0 .3.3.6.6.6s.6-.3.6-.6v-2h2.1c.3 0 .6-.3.6-.6 0-.4-.2-.7-.6-.7zM188.873 143.803h-5.4v-5.4c0-.3-.3-.6-.6-.6s-.6.3-.6.6v5.4h-5.4c-.3 0-.6.3-.6.6s.3.6.6.6h5.4v5.4c0 .3.3.6.6.6s.6-.3.6-.6v-5.4h5.4c.3 0 .6-.3.6-.6s-.3-.6-.6-.6zM115.873 131.903h-4.9v-4.9c0-.3-.3-.6-.6-.6s-.6.3-.6.6v4.9h-4.9c-.3 0-.6.3-.6.6s.3.6.6.6h4.9v4.9c0 .3.3.6.6.6s.6-.3.6-.6v-4.9h4.9c.3 0 .6-.3.6-.6s-.3-.6-.6-.6zM50.173 34.803h-4.8v-4.8c0-.3-.3-.6-.6-.6s-.6.3-.6.6v4.9h-4.9c-.3 0-.6.3-.6.6s.3.6.6.6h4.9v4.9c0 .3.3.6.6.6s.6-.3.6-.6v-4.9h4.9c.3 0 .6-.3.6-.6 0-.4-.3-.7-.7-.7zM192.073 85.603h-2.1v-2.1c0-.3-.3-.6-.6-.6s-.6.3-.6.6v2.1h-2.1c-.3 0-.6.3-.6.6s.3.6.6.6h2.1v2.2c0 .3.3.6.6.6s.6-.3.6-.6v-2.1h2.1c.3 0 .6-.3.6-.6s-.2-.7-.6-.7z"/><path fill="#BABCB7" d="M93.373 108.903l-6.5 4.8c-2.8 2.1-6.8 1.5-8.8-1.3l-13.2-17.7c-2.1-2.7-1.5-6.7 1.3-8.8l6.5-4.8c2.8-2.1 6.8-1.5 8.8 1.3l13.2 17.7c2.1 2.8 1.5 6.8-1.3 8.8z"/><path fill="#4A4A4A" d="M83.073 115.703c-.3 0-.7 0-1.1-.1-1.9-.3-3.4-1.3-4.5-2.7l-13.1-17.8c-2.3-3.1-1.6-7.4 1.4-9.7l6.5-4.8c3.1-2.3 7.4-1.6 9.7 1.4l13.2 17.7c2.3 3.1 1.6 7.4-1.4 9.7l-6.5 4.8c-1.3 1-2.7 1.5-4.2 1.5zm-6.6-35.2c-1.2 0-2.4.4-3.4 1.1l-6.5 4.8c-2.5 1.9-3 5.4-1.2 7.9l13.2 17.7c.9 1.2 2.2 2 3.7 2.2 1.5.2 3-.1 4.2-1.1l6.5-4.8c1.2-.9 2-2.2 2.2-3.7.2-1.5-.1-3-1.1-4.2l-13-17.7c-1.1-1.5-2.9-2.2-4.6-2.2z"/><path fill="#fff" d="M83.073 113.803c-1.6 0-3.1-.7-4.1-2.1l-13.1-17.7c-1.6-2.2-1.2-5.4 1.1-7.1l6.5-4.8c2.2-1.6 5.4-1.2 7.1 1.1.2.3.2.7-.1.9-.3.2-.7.2-.9-.1-1.3-1.7-3.6-2-5.3-.8l-6.5 4.8c-1.7 1.3-2 3.6-.8 5.3l13.1 17.7c1.3 1.7 3.6 2 5.3.8.3-.2.7-.2.9.1.2.3.2.7-.1.9-1 .6-2 1-3.1 1z"/><path fill="#ECECEC" d="M111.373 99.203l14.5-10.2 7.1 10.1-18 12.6"/><path fill="#4A4A4A" d="M114.973 112.303c-.2 0-.4-.1-.5-.3-.2-.3-.1-.7.2-.9l17.4-12.1-6.3-9.1-14 9.8c-.3.2-.7.1-.9-.2-.2-.3-.1-.7.2-.9l14.5-10.1c.1-.1.3-.1.5-.1s.3.1.4.3l7 10.1c.2.3.1.7-.2.9l-18 12.6h-.3z"/><path fill="#ECECEC" d="M156.273 93.103l-24.8-8.1 1.2 12.3 21 6.5 2.6-10.7z"/><path fill="#4A4A4A" d="M153.673 104.403h-.2l-21-6.5c-.3-.1-.4-.3-.5-.5l-1.1-12.3c0-.2.1-.4.3-.5.2-.1.4-.2.6-.1l24.8 8.1c.3.1.5.4.4.8l-2.6 10.7c0 .2-.2.3-.3.4-.1-.1-.3-.1-.4-.1zm-20.4-7.6l20 6.2 2.3-9.5-23.3-7.6 1 10.9z"/><path fill="#fff" d="M152.373 102.003h-.2l-17.9-5.5c-.3-.1-.4-.3-.5-.5l-.8-8.2c0-.3.2-.7.6-.7.3 0 .7.2.7.6l.7 7.7 16.9 5.2 1.6-6.4c.1-.3.4-.5.8-.5s.5.4.5.8l-1.7 7c0 .2-.2.3-.3.4-.2.1-.3.1-.4.1z"/><path fill="#B1B1B1" d="M128.473 87.003l6 9.4c.6 1 .3 2.2-.6 2.9-1 .6-2.2.3-2.9-.6l-6-9.4c-.6-1 2.1.9 3.1.3.9-.7-.2-3.5.4-2.6z"/><path fill="#4A4A4A" d="M132.773 100.203c-.2 0-.4 0-.6-.1-.7-.2-1.3-.6-1.7-1.2l-6-9.4c-.3-.5-.2-.8 0-1 .3-.4.9-.3 1.6 0 .4.1 1.5.5 1.7.4 0 0 .2-.3 0-1.6-.1-.5-.2-1 .4-1.2.5-.2.8.3.9.5l6 9.4c.8 1.3.4 2.9-.8 3.7-.5.4-1 .5-1.5.5zm-6.5-10.2l5.3 8.3c.2.3.5.5.9.6.4.1.8 0 1.1-.2.7-.4.8-1.3.4-2l-4.9-7.7c-.1.4-.3.8-.6 1-.7.4-1.5.3-2.2 0z"/><path fill="#BABCB7" d="M130.173 96.703a5.9 5.9 0 100-11.8 5.9 5.9 0 000 11.8z"/><path fill="#4A4A4A" d="M130.173 97.403c-.5 0-1 0-1.5-.2-1.7-.4-3.2-1.4-4.1-2.9-.9-1.5-1.2-3.2-.8-5 .4-1.8 1.4-3.2 2.9-4.1 1.5-.9 3.2-1.2 5-.8 3.5.8 5.7 4.3 4.9 7.9-.7 3-3.4 5.1-6.4 5.1zm0-11.9c-1 0-1.9.3-2.8.8-1.2.8-2 1.9-2.4 3.3-.3 1.4-.1 2.8.7 4 .8 1.2 1.9 2 3.3 2.4 2.9.6 5.7-1.1 6.4-4 .7-2.9-1.1-5.7-4-6.4-.4 0-.8-.1-1.2-.1z"/><path fill="#fff" d="M130.173 95.503c-.3 0-.7 0-1.1-.1-1.2-.3-2.3-1-2.9-2.1-.7-1.1-.9-2.3-.6-3.5.3-1.1.9-2.1 1.8-2.7.3-.2.7-.1.9.1.2.3.2.7-.1.9-.6.5-1.1 1.2-1.3 2-.2.9 0 1.8.4 2.6.5.8 1.2 1.3 2.1 1.5 1 .2 2 0 2.8-.6.3-.2.7-.1.9.1.2.3.2.7-.1.9-.8.5-1.8.9-2.8.9z"/><path fill="#D8D8D8" d="M164.974 85.303c-1 3.3-5.2 7.1-8.4 8.7l-3.3-1c-.5 1.8.5 3.6 2.2 4.2l2.4-2.1 7.5 8.9 3.8-14.8c.9-.4 1.6-1.1 1.9-2.1.5-1.7-.5-3.4-2.2-4-1.7-.4-3.4.5-3.9 2.2z"/><path fill="#4A4A4A" d="M165.373 104.603c-.2 0-.4-.1-.5-.2l-7.1-8.4-2 1.7c-.2.2-.5.2-.7.1-2-.7-3.2-2.9-2.6-4.9.1-.3.4-.5.8-.4l3.1.9c3.2-1.6 7-5.3 7.8-8.2.3-1 .9-1.8 1.8-2.3.9-.5 1.9-.6 2.9-.3s1.8.9 2.3 1.8c.5.9.6 1.9.3 2.9s-1 1.9-1.9 2.4l-3.7 14.6c0 .2-.3.4-.5.5.2-.2.1-.2 0-.2zm-7.5-10.1c.2 0 .4.1.5.2l6.7 7.9 3.5-13.7c0-.2.2-.3.4-.4.7-.3 1.3-.9 1.5-1.6.2-.7.1-1.3-.2-1.9-.3-.6-.9-1.1-1.6-1.2-.7-.1-1.3-.1-1.9.2-.6.3-1.1.9-1.2 1.6-1 3.4-5.3 7.4-8.7 9.1-.1.1-.3.1-.5 0l-2.6-.8c0 1.1.5 2.1 1.6 2.6l2.1-1.9c.2-.1.3-.1.4-.1z"/><path fill="#BABCB7" d="M155.173 102.604c-.1 0-.1 0 0 0-.3.2-.6.4-.7.8-.2.6.2 1.3.8 1.5l8.3 2.4c.6.2 1.3-.2 1.5-.8.1-.3 0-.5 0-.7l.4-1.7-7.5-8.9-2.4 2.1"/><path fill="#4A4A4A" d="M163.874 107.803c-.2 0-.3 0-.5-.1l-8.3-2.4c-1-.3-1.5-1.3-1.2-2.2.1-.5.5-.9.9-1.1.1 0 .2-.1.3-.1.3 0 .6.2.7.5 0 .3-.2.6-.4.7-.1 0-.2.1-.3.3-.1.3.1.6.4.7l8.3 2.4h.4l.3-.3v-.3-.3l.4-1.4-6.9-8.2-2 1.7c-.3.2-.7.2-.9 0-.2-.3-.2-.7 0-.9l2.4-2.1c.1-.1.3-.2.5-.2s.3.1.4.2l7.5 8.9c.1.2.2.4.1.5l-.4 1.6v.8c-.1.5-.4.8-.8 1.1-.3.2-.6.2-.9.2z"/><path fill="#fff" d="M161.273 105.803h-.1l-5.7-1.6c-.3-.1-.4-.3-.3-.6 0-.1.1-.2.2-.3.2-.1.4-.1.5.1l5.4 1.6c.2 0 .3.3.3.5s-.2.3-.3.3z"/><path fill="#BABCB7" d="M165.373 98.204c.2 1.4-.1 2.4-.3 3-.3 1.2-.9 1.5-.9 1.5l-1.2 1.1s-.9.5-.5 1.6c.3 1.2 1.1 2.1 2.4 2.5.2 0 .4.1.6.1v-.1l1.8-6.2 2.1-7.3-1.9-1.1c-.1 0-2.4 1.6-2.1 4.9z"/><path fill="#4A4A4A" d="M165.273 108.604c-.3 0-.5-.1-.8-.1-1.4-.4-2.5-1.6-2.8-3-.4-1.1.3-1.9.8-2.2l1.3-1.1s.4-.3.6-1.1l.1-.3c.2-.6.4-1.4.3-2.5-.3-3.5 2.1-5.3 2.2-5.4l.3-.3 2.7 1.5-4.2 14.5h-.5zm-.8-5.4l-1.3 1.1c-.1.1-.4.3-.3.8.2 1.1 1 1.9 1.9 2.1l3.6-12.5-1.1-.6c-.5.5-1.6 1.9-1.4 4 .2 1.3-.1 2.3-.3 3l-.1.3c-.2 1.2-.7 1.7-1 1.8z"/><path fill="#fff" d="M164.573 107.003h-.2c-.7-.4-1.2-1-1.4-1.8-.1-.2-.1-.3 0-.5 0 0 .1-.2.1-.3l.1-.1h.1l1.1-1c.2-.1.4-.1.5 0 .1.2.1.4 0 .5l-1.2 1.1c.1.6.5 1.1 1 1.3.2.1.3.3.2.5 0 .2-.1.3-.3.3zm1.9-8.5c-.2 0-.4-.2-.4-.4 0-.7 0-1.3.2-1.9.3-.8.7-1.4 1-1.8.1-.2.4-.2.5 0 .2.1.2.4 0 .5-.3.3-.6.8-.8 1.5-.1.5-.2 1-.2 1.6.1.3-.1.4-.3.5z"/><path fill="#BABCB7" d="M168.274 95.703c.3.1.6-.1.7-.4l3.3-11.4c.1-.3-.1-.6-.4-.7l-1.8-.5c-.3-.1-.6.1-.7.4l-2.9 10.1c-.1.3-.1.6.3 1l1.5 1.5z"/><path fill="#4A4A4A" d="M168.473 96.303h-.5l-1.6-1.7c-.3-.3-.6-.8-.4-1.6l2.9-10.1c.2-.6.8-1 1.5-.8l1.8.5c.6.2 1 .8.8 1.5l-3.3 11.4c-.1.3-.3.5-.5.7-.4 0-.5.1-.7.1zm1.4-13l-2.8 10c0 .1 0 .2.1.4l1.1 1.2 3.2-11.2-1.6-.4zM158.974 96.803c-.2 0-.3-.1-.5-.2-.3-.3-.2-.7 0-.9l4.4-4-.8-1.9c-.1-.3 0-.7.3-.8.3-.1.7 0 .8.3l1 2.3c.1.3 0 .5-.2.7l-4.8 4.3c.1.1 0 .2-.2.2z"/><path fill="#fff" d="M164.073 101.203c-.1 0-.2 0-.3-.2l-3.5-4.5c-.1-.2-.1-.4 0-.5l3.3-3.2c.2-.2.4-.1.5 0 .2.2.1.4 0 .5l-3.1 2.9 3.3 4.2c.1.2.1.4-.1.5.1.3 0 .3-.1.3zM155.273 96.503h-.2s-1.3-.7-1.4-2.3c0-.2.2-.4.4-.4s.4.2.4.4c.1 1.1 1 1.6 1 1.6.2.1.3.3.2.5-.1.1-.2.2-.4.2zM167.473 93.803h-.1c-.2 0-.3-.3-.3-.5l2.7-9.6c0-.2.3-.3.5-.3s.3.3.3.5l-2.7 9.6c0 .2-.2.3-.4.3z"/><path fill="#BABCB7" d="M157.473 93.703l-2.4 10.6c-.3 1.4-1.8 2.3-3.2 2-1.4-.3-2.3-1.8-2-3.2l2.4-10.6c.3-1.4 1.8-2.3 3.2-2 1.5.4 2.4 1.8 2 3.2z"/><path fill="#4A4A4A" d="M152.473 107.003c-.3 0-.5 0-.7-.1-1.8-.4-2.9-2.2-2.5-4l2.4-10.6c.2-.8.7-1.6 1.5-2.1s1.6-.6 2.5-.4c.9.2 1.6.7 2.1 1.5s.6 1.6.4 2.5l-2.4 10.6c-.4 1.5-1.8 2.6-3.3 2.6zm2.5-15.9c-.4 0-.8.1-1.1.3-.5.3-.8.7-.9 1.3l-2.4 10.6c-.3 1.1.4 2.2 1.5 2.4 1.1.3 2.2-.4 2.4-1.5l2.4-10.6c.1-.5 0-1.1-.3-1.5-.3-.5-.7-.8-1.3-.9 0-.1-.2-.1-.3-.1z"/><path fill="#fff" d="M152.473 105.103h-.3c-.3-.1-.7-.3-.8-.6-.2-.3-.3-.7-.2-1.1l2.4-10.6c.1-.3.3-.6.5-.8.2-.2.7-.2.9.1.2.3.2.7-.1.9l-2.5 10.6.1.2c.1-.3.5-.6.8-.5.3.1.6.4.5.7-.1.3-.3.6-.5.8-.2.1-.5.3-.8.3z"/><path fill="#ECECEC" d="M104.973 118.004c8.782 0 15.9-7.119 15.9-15.9 0-8.782-7.118-15.9-15.9-15.9-8.781 0-15.9 7.118-15.9 15.9 0 8.781 7.119 15.9 15.9 15.9z"/><path fill="#4A4A4A" d="M104.973 118.703c-5 0-10.1-2.3-13.3-6.7-2.6-3.5-3.7-7.9-3.1-12.3.6-4.4 2.9-8.2 6.5-10.9 3.5-2.6 7.9-3.7 12.3-3.1 4.4.6 8.2 2.9 10.9 6.5 5.4 7.3 3.9 17.7-3.4 23.1-3 2.3-6.5 3.4-9.9 3.4zm0-31.8c-3.2 0-6.4 1.1-9 3-6.8 5-8.2 14.6-3.2 21.3 5 6.8 14.6 8.2 21.3 3.2 6.8-5 8.2-14.6 3.2-21.3-2.4-3.3-6-5.4-10-6-.8-.2-1.6-.2-2.3-.2z"/><path fill="#ECECEC" d="M118.473 54.403l-.6 1.1c-.5.8-.2 1.9.6 2.3.3.1.5.2.8.2.1 1.7 1 3.3 2.5 4.2 2.4 1.5 5.6.6 7.1-1.8l2-3.3c1.5-2.4.6-5.6-1.8-7.1s-5.6-.6-7.1 1.8l-1.2 2c-.8-.5-1.8-.2-2.3.6z"/><path fill="#4A4A4A" d="M124.373 63.503c-1.1 0-2.1-.3-2.9-.8-1.5-.9-2.5-2.4-2.8-4.2-.2 0-.4-.1-.5-.2-.5-.3-.9-.8-1.1-1.4-.2-.6 0-1.2.3-1.8l.6-1.1c.5-.9 1.6-1.3 2.5-1.1l.9-1.6c1.6-2.7 5.2-3.7 7.9-2 2.7 1.6 3.7 5.2 2 7.9l-2 3.3c-.8 1.3-2.1 2.3-3.6 2.6-.3.4-.8.4-1.3.4zm-4.4-9.3c-.4 0-.7.2-.9.5l-.6 1.1c-.3.5-.1 1.1.4 1.4.1.1.3.1.5.1h.6v.6c.1 1.5.9 2.9 2.2 3.7 1.1.6 2.3.8 3.4.5 1.2-.3 2.2-1.1 2.8-2.1l2-3.3c1.3-2.1.6-5-1.6-6.2-2.2-1.2-5-.6-6.2 1.6l-1.5 2.5-.5-.3c-.3-.1-.4-.1-.6-.1z"/><path fill="#fff" d="M124.373 61.603c-.7 0-1.4-.2-2-.5-.2-.1-.3-.2-.5-.3-.3-.2-.3-.6-.1-.9.2-.3.6-.3.9-.1.1.1.2.1.3.2.6.4 1.3.5 2 .3s1.3-.6 1.6-1.2l2-3.3c.7-1.1.4-2.6-.6-3.4-.1-.1-.2-.1-.3-.2-.3-.2-.4-.5-.2-.9.2-.3.5-.4.9-.2.2.1.3.2.5.3 1.5 1.2 1.9 3.4.9 5l-2 3.3c-.5.9-1.4 1.5-2.4 1.8-.3.1-.7.1-1 .1z"/><path fill="#ECECEC" d="M93.273 69.204c-3.1.2-5.6 2.9-5.3 6 .2 3.1 2.9 5.6 6 5.3l17.8-1c2.1.3 4.2-.5 5.5-2.4l9-13-9.5-6.4-7.2 10.4-16.3 1.1z"/><path fill="#4A4A4A" d="M93.573 81.303c-3.3 0-6.1-2.6-6.3-6-.2-3.5 2.5-6.5 6-6.7l15.9-.9 7.4-10.7 10.5 7.1-9.3 13.5c-1.3 2-3.7 3-6.1 2.6l-17.7 1c-.1.1-.3.1-.4.1zm-.3-11.4c-2.8.2-4.9 2.6-4.8 5.3.2 2.8 2.5 4.9 5.3 4.8l17.8-1c2 .3 3.9-.5 5-2.1l8.6-12.5-8.4-5.6-7 10.2-16.5.9z"/><path fill="#fff" d="M93.573 79.403c-1 0-2-.3-2.8-1-1-.8-1.6-1.9-1.6-3.2l1.3-.1c0 .9.5 1.7 1.2 2.3.6.5 1.4.8 2.1.7l18-1.1h.3c1.2.2 2.4-.3 3.1-1.3l7.5-10.9-5.8-3.9.7-1.1 6.9 4.6-8.2 11.9c-.9 1.3-2.6 2.1-4.2 1.9h-.2l-17.8 1.1c-.3.1-.4.1-.5.1z"/><path fill="#BABCB7" d="M117.873 56.303l8.7 6.1c.8.6 1.1 1.8.5 2.6-.6.8-1.8 1.1-2.6.5l-8.7-6.1c-.8-.6-1.1-1.8-.5-2.6.6-.8 1.8-1.1 2.6-.5z"/><path fill="#4A4A4A" d="M125.473 66.403c-.5 0-1-.2-1.4-.5l-8.7-6.1c-.5-.4-.9-1-1-1.6-.1-.7 0-1.3.4-1.9.4-.5 1-.9 1.6-1 .7-.1 1.3 0 1.9.4l8.7 6.1c.5.4.9 1 1 1.6.1.7 0 1.3-.4 1.9-.4.5-1 .9-1.6 1-.2.1-.4.1-.5.1zm-8.6-9.8h-.2c-.3 0-.6.3-.8.5-.2.3-.3.6-.2.9 0 .3.3.6.5.8l8.7 6.1c.5.4 1.3.3 1.7-.3.2-.3.3-.6.2-.9-.1-.3-.3-.6-.5-.8l-8.7-6.1c-.3-.1-.5-.2-.7-.2z"/><path fill="#B1B1B1" d="M110.473 68.303l3.4 10.6c.3 1.1-.3 2.2-1.3 2.6-1.1.3-2.2-.3-2.6-1.3l-3.4-10.6c-.3-1.1.3-2.2 1.3-2.6 1.1-.4 2.2.2 2.6 1.3z"/><path fill="#4A4A4A" d="M111.873 82.203c-1.1 0-2.2-.7-2.6-1.9l-3.4-10.6c-.2-.7-.2-1.4.2-2.1.3-.6.9-1.1 1.6-1.3 1.4-.5 2.9.3 3.4 1.8l3.4 10.6c.2.7.2 1.4-.2 2.1-.3.6-.9 1.1-1.6 1.3-.3.1-.6.1-.8.1zm-3.4-14.7c-.1 0-.3 0-.4.1-.4.1-.7.4-.8.7-.1.3-.2.7-.1 1.1l3.4 10.6c.1.4.4.7.7.8.3.1.7.2 1.1.1.8-.3 1.2-1.1.9-1.8l-3.4-10.6c-.1-.4-.4-.7-.7-.8-.3-.2-.5-.2-.7-.2z"/><path fill="#ECECEC" d="M91.973 116.403l-.9-.9c-.6-.7-1.7-.7-2.4 0-.2.2-.3.5-.4.7-1.6-.3-3.4.1-4.7 1.3-2 2-2.1 5.3-.1 7.3l2.7 2.8c2 2 5.3 2.1 7.3.1s2.1-5.3.1-7.3l-1.6-1.6c.6-.7.6-1.7 0-2.4z"/><path fill="#4A4A4A" d="M89.873 129.803c-1.5 0-3-.6-4.1-1.7l-2.7-2.8c-1.1-1.1-1.7-2.6-1.6-4.1 0-1.6.6-3 1.7-4.1 1.3-1.2 3-1.8 4.8-1.6.1-.2.2-.3.3-.5.9-.9 2.4-.9 3.3 0l.9.9c.7.7.8 1.8.4 2.7l1.3 1.3c2.2 2.3 2.2 6-.1 8.2-1.2 1.2-2.7 1.7-4.2 1.7zm-2.7-13.1c-1.2 0-2.3.5-3.2 1.3-.9.8-1.3 2-1.3 3.2 0 1.2.5 2.4 1.3 3.2l2.7 2.8c1.8 1.8 4.6 1.8 6.4 0 1.8-1.8 1.8-4.6 0-6.4l-2.1-2.1.4-.5c.4-.4.4-1.1 0-1.4l-.9-.9c-.4-.4-1.1-.4-1.5 0-.1.1-.2.3-.3.4l-.2.5-.5-.1c-.2.1-.5 0-.8 0z"/><path fill="#fff" d="M89.873 128.003c-1 0-2.1-.4-2.8-1.2l-2.7-2.8c-.7-.8-1.1-1.7-1.1-2.8 0-1.1.4-2 1.2-2.7.1-.1.3-.3.4-.3.3-.2.7-.2.9.1.2.3.2.7-.1.9l-.3.3c-.5.5-.8 1.1-.8 1.9 0 .7.3 1.4.8 1.9l2.7 2.8c.9.9 2.4 1.1 3.4.3l.3-.3c.3-.3.6-.3.9 0 .3.3.3.6 0 .9-.1.1-.3.3-.4.3-.7.4-1.6.7-2.4.7z"/><path fill="#ECECEC" d="M102.873 72.703c-3-4-8.7-4.9-12.7-1.9l-18 13.4 18 24.3 25.2-18.7-12.5-17.1z"/><path fill="#4A4A4A" d="M89.973 109.403l-18.7-25.3 18.5-13.8c4.3-3.2 10.4-2.3 13.6 2l13 17.5-26.4 19.6zm-17-25.1l17.2 23.3 24.3-18-12.2-16.5c-2.8-3.7-8.1-4.5-11.8-1.8l-17.5 13z"/><path fill="#BABCB7" d="M115.462 89.781l-25.32 18.743 2.916 3.939 25.32-18.743-2.916-3.939z"/><path fill="#4A4A4A" d="M92.873 113.303l-3.7-5 26.3-19.5 3.7 5-26.3 19.5zm-1.9-4.7l2.1 2.9 24.3-18-2.1-2.9-24.3 18z"/><path fill="#fff" d="M93.373 110.403c-.2 0-.4-.1-.5-.3l-.7-.9c-.1-.1-.1-.3-.1-.5s.1-.3.3-.4l22.3-16.5c.3-.2.7-.1.9.1.2.3.2.7-.1.9l-21.9 16.2.3.4c.2.3.2.7-.1.9-.1.1-.2.1-.4.1zM90.373 106.403c-.2 0-.4-.1-.5-.3l-15.6-21.1c-.1-.1-.1-.3-.1-.5s.1-.3.3-.4l16.5-12.2c.3-.2.7-.2.9.1.2.3.2.7-.1.9l-16 11.9 15.3 20.6c.2.3.2.7-.1.9-.3 0-.5.1-.6.1z"/><path fill="#ECECEC" d="M78.973 65.203c-.9-.7-1.6-1.6-2-2.7-1.8-4.6-1.2-9.8 1.5-13.9-3-.1-6.1.8-8.7 2.7-6.2 4.6-7.5 13.3-2.9 19.6l8.2 11.1 11.3-8.3c2-1.5 3.4-3.4 4.4-5.5-4.2.7-8.5-.4-11.8-3z"/><path fill="#4A4A4A" d="M74.973 82.903l-8.7-11.7c-4.8-6.5-3.4-15.6 3.1-20.4 2.6-2 5.8-2.9 9.2-2.9h1.1l-.6.9c-2.6 4-3.1 8.9-1.4 13.3.4 1 1 1.8 1.8 2.5 3.2 2.5 7.3 3.5 11.3 2.9l1.1-.2-.5 1.1c-1 2.3-2.6 4.2-4.6 5.7l-11.8 8.8zm2.3-33.8c-2.6.1-5.1 1-7.3 2.6-5.9 4.4-7.1 12.7-2.8 18.7l7.9 10.7 10.7-7.9c1.5-1.1 2.8-2.6 3.7-4.2-4 .3-7.9-.9-11.1-3.3-1-.8-1.8-1.8-2.2-3-1.5-4.5-1.1-9.4 1.1-13.6z"/><path fill="#fff" d="M75.474 80.003c-.2 0-.4-.1-.5-.3l-7.2-9.7c-4.2-5.6-3-13.6 2.6-17.8 1.4-1.1 2.9-1.8 4.6-2.1.3-.1.7.1.8.5.1.3-.1.7-.5.8-1.5.3-2.9 1-4.2 1.9-5.1 3.7-6.1 10.9-2.4 16l7.2 9.7c.2.3.2.7-.1.9 0 .1-.2.1-.3.1z"/><path fill="#BABCB7" d="M89.173 54.103c-2.6-3.6-6.6-5.5-10.8-5.6-2.7 4.1-3.3 9.3-1.5 13.9.4 1.1 1.1 2 2 2.7 3.4 2.6 7.7 3.7 11.8 3.1 2.1-4.4 1.7-9.9-1.5-14.1z"/><path fill="#4A4A4A" d="M88.473 69.003c-3.5 0-7-1.2-9.8-3.4-1-.8-1.8-1.8-2.2-3-1.9-4.8-1.3-10.2 1.6-14.5l.2-.3h.3c4.5.2 8.6 2.3 11.3 5.9 3.2 4.2 3.7 9.9 1.6 14.7l-.1.3h-.3c-1.1.2-1.9.3-2.6.3zm-9.7-19.9c-2.4 3.9-2.9 8.7-1.3 13 .4 1 1 1.8 1.8 2.5 3.1 2.4 7.1 3.5 10.9 3 1.8-4.3 1.2-9.3-1.6-13.1-2.2-3.2-5.9-5.1-9.8-5.4z"/><path fill="#fff" d="M88.373 67.103c-3.2 0-6.2-1.1-8.7-3-.7-.6-1.3-1.3-1.6-2.2-1.5-3.9-1.2-8.2.8-11.8.2-.3.5-.4.8-.3.3.1.4.5.3.8-1.8 3.3-2.1 7.2-.7 10.7.3.6.7 1.2 1.2 1.6 2.5 1.9 5.6 2.9 8.8 2.7.3 0 .6.3.7.6 0 .3-.3.6-.6.7-.3.2-.6.2-1 .2z"/><path fill="#BABCB7" d="M76.573 69.103a4.1 4.1 0 100-8.2 4.1 4.1 0 000 8.2z"/><path fill="#4A4A4A" d="M76.573 69.803h-.7c-1.3-.2-2.4-.8-3.1-1.9-1.6-2.1-1.1-5 1-6.6 2.1-1.6 5-1.1 6.6 1 .8 1 1.1 2.3.9 3.5-.2 1.2-.9 2.3-1.9 3.1-.8.6-1.8.9-2.8.9zm0-8.2c-.7 0-1.4.2-2.1.7-1.6 1.1-1.9 3.3-.7 4.8.5.8 1.3 1.2 2.3 1.3.9.1 1.9-.1 2.6-.6.8-.5 1.2-1.3 1.3-2.3.1-.9-.1-1.8-.6-2.6-.7-.9-1.7-1.3-2.8-1.3z"/><path fill="#fff" d="M76.573 67.903h-.4c-.8-.1-1.4-.5-1.9-1.1-.9-1.3-.7-3 .6-4 .3-.2.7-.2.9.1.2.3.2.7-.1.9-.7.5-.8 1.5-.3 2.2.3.3.6.5 1.1.6.4 0 .8 0 1.2-.3.3-.2.7-.2.9.1.2.3.2.7-.1.9-.7.4-1.3.6-1.9.6z"/><path fill="#ECECEC" d="M93.773 70.604l-18.9 14c-.9.6-2.1.5-2.8-.4-.6-.9-.5-2.1.4-2.8l18.9-14c.9-.6 2.1-.5 2.8.4.7.9.5 2.2-.4 2.8z"/><path fill="#4A4A4A" d="M73.673 85.603h-.4c-.7-.1-1.3-.5-1.7-1.1-.4-.5-.6-1.3-.5-1.9.1-.7.5-1.3 1.1-1.7l18.9-14c.5-.4 1.3-.6 1.9-.5.7.1 1.3.5 1.7 1.1.8 1.2.6 2.8-.5 3.7l-18.9 14c-.5.3-1 .4-1.6.4zm18.9-17.9c-.3 0-.6.1-.8.3l-18.9 14c-.3.2-.5.5-.5.9s0 .7.3 1c.3.3.5.5.9.5.3 0 .7 0 1-.3l18.9-14c.6-.5.7-1.3.3-1.9-.2-.3-.5-.5-.9-.5h-.3z"/><path fill="#fff" d="M73.673 83.803c-.3 0-.5-.2-.5-.3-.1-.1-.2-.4-.1-.5 0-.2.2-.4.3-.5l18.9-14c.1-.1.4-.2.5-.1.2 0 .4.1.5.3.2.3.1.7-.1.9-.1.1-.2.1-.3.1l-18.5 13.5c0 .2-.1.3-.3.4-.1.1-.2.2-.4.2z"/><path fill="#ECECEC" d="M83.973 88.203c.6-3.1-1.4-6.1-4.5-6.7-3.1-.6-6.1 1.4-6.7 4.5l-3.5 17.5c-.8 1.9-.5 4.2.9 5.9l10.3 12 8.5-7.5-8.3-9.6 3.3-16.1z"/><path fill="#4A4A4A" d="M80.373 122.103l-10.7-12.4c-1.6-1.8-1.9-4.3-1-6.6l3.5-17.3c.7-3.4 4-5.6 7.4-5 3.4.7 5.6 4 5 7.4l-3.2 15.7 8.5 9.8-9.5 8.4zm-2-40.1c-2.4 0-4.5 1.7-5 4.1l-3.5 17.5c-.8 1.9-.5 3.9.8 5.3l9.9 11.5 7.6-6.7-8.1-9.4 3.3-16.3c.5-2.7-1.2-5.4-4-6h-1z"/><path fill="#fff" d="M80.573 119.503l-9.5-11c-1.1-1.3-1.3-3-.7-4.6l.1-.2 3.5-17.5c.2-1.1.8-2 1.7-2.7 1-.8 2.3-1.1 3.5-.8l-.3 1.2c-.9-.2-1.8 0-2.5.6-.6.5-1.1 1.1-1.2 1.9l-3.7 17.9c-.5 1.1-.3 2.4.5 3.3l8.6 10.1 5.2-4.6.8.9-6 5.5z"/><path fill="#BABCB7" d="M90.173 115.303l-8 6.9c-.8.7-2 .6-2.6-.2-.7-.8-.6-2 .2-2.6l8-6.9c.8-.7 2-.6 2.6.2.7.7.6 1.9-.2 2.6z"/><path fill="#4A4A4A" d="M80.973 123.203h-.2c-.7 0-1.3-.4-1.7-.9-.9-1.1-.8-2.6.3-3.5l8-6.9c1.1-.9 2.6-.8 3.5.3.9 1.1.8 2.6-.3 3.5l-8 6.9c-.4.4-1 .6-1.6.6zm8-10.6c-.3 0-.6.1-.8.3l-8 6.8c-.5.4-.6 1.2-.1 1.7.2.3.5.4.8.4.3 0 .6-.1.9-.3l8-6.9c.5-.4.6-1.2.1-1.7-.2-.1-.5-.3-.9-.3zM107.073 96.603c-.2 0-.4-.1-.5-.3l-11.5-15.5c-1.3-1.8-3.4-2.8-5.8-3-2.4-.2-4.8.5-6.6 1.9-.3.2-.7.2-.9-.1-.2-.3-.2-.7.1-.9 2.1-1.6 4.8-2.3 7.5-2.1 2.8.2 5.2 1.5 6.8 3.5l11.5 15.5c.2.3.2.7-.1.9-.2 0-.4.1-.5.1z"/><path fill="#4A4A4A" d="M98.673 85.203c-.2 0-.4-.1-.5-.3-.2-.3-.2-.7.1-.9l8.3-6.2c.3-.2.7-.1.9.1.2.3.2.7-.1.9l-8.3 6.2c-.1.2-.2.2-.4.2z"/><path fill="#B1B1B1" d="M80.573 105.103l-11.2.5c-1.1 0-2.1-.8-2.1-1.9 0-1.1.8-2.1 1.9-2.1l11.2-.6c1.1 0 2.1.8 2.1 1.9 0 1.2-.8 2.1-1.9 2.2z"/><path fill="#4A4A4A" d="M69.273 106.303c-.7 0-1.3-.3-1.8-.7-.5-.5-.8-1.1-.9-1.9 0-.7.2-1.4.7-1.9.5-.5 1.1-.8 1.9-.9l11.1-.5c1.5-.1 2.7 1.1 2.8 2.6.1 1.5-1.1 2.7-2.6 2.8l-11.2.5c.1 0 0 0 0 0zm11.1-4.7l-11.2.5c-.4 0-.7.2-1 .5-.3.3-.4.6-.4 1 0 .8.8 1.4 1.5 1.3l11.1-.5c.8 0 1.4-.7 1.3-1.5.1-.7-.5-1.3-1.3-1.3z"/><path fill="#ECECEC" d="M109.873 106.203l17.6 1.7-1.3 12.2-21.8-2.1"/><path fill="#4A4A4A" d="M126.173 120.803l-21.9-2.1c-.3 0-.6-.3-.5-.7 0-.3.3-.6.7-.5l21.2 2.1 1.1-11-17-1.7c-.3 0-.6-.3-.5-.7 0-.3.3-.6.7-.5l17.6 1.7c.2 0 .3.1.4.2.1.1.2.3.1.5l-1.2 12.2c-.1.3-.3.5-.7.5z"/><path fill="#ECECEC" d="M147.873 130.803l-13.5-22.3-7.2 10.1 11.8 18.6 8.9-6.4z"/><path fill="#4A4A4A" d="M138.973 137.803h-.1c-.2 0-.3-.1-.4-.3l-11.8-18.6c-.1-.2-.1-.5 0-.7l7.1-10.1c.1-.2.3-.3.5-.3s.4.1.5.3l13.6 22.2c.2.3.1.6-.2.8l-8.9 6.4c-.1.3-.2.3-.3.3zm-11-19.2l11.2 17.7 7.9-5.7-12.8-20.9-6.3 8.9z"/><path fill="#fff" d="M139.473 135.103c-.2 0-.4-.1-.5-.3l-10-15.9c-.2-.3-.1-.7.2-.9.3-.2.7-.1.9.2l10 15.9c.2.3.1.7-.2.9-.2.1-.3.1-.4.1z"/><path fill="#B1B1B1" d="M130.673 108.003l-1.6 11.1c-.2 1.1-1.2 1.9-2.3 1.8-1.1-.2-1.9-1.2-1.8-2.3l1.6-11.1c.2-1.1 1 2.1 2.1 2.2 1.2.1 2.2-2.8 2-1.7z"/><path fill="#4A4A4A" d="M127.073 121.503h-.4c-1.5-.2-2.5-1.6-2.3-3l1.6-11.1c.1-.5.4-.7.6-.8.5-.1.8.4 1.2 1.1.2.3.8 1.3 1.1 1.4.1 0 .3 0 1-1.2.3-.4.5-.8 1.1-.6.5.2.4.8.4.9l-1.6 11.1c-.2 1.2-1.4 2.2-2.7 2.2zm0-12.6l-1.4 9.7c-.1.8.4 1.5 1.2 1.6.8.1 1.5-.4 1.6-1.2l1.3-9c-.3.3-.7.4-1.1.3-.7-.1-1.2-.7-1.6-1.4z"/><path fill="#BABCB7" d="M129.573 118.003a5.9 5.9 0 100-11.8 5.9 5.9 0 000 11.8z"/><path fill="#4A4A4A" d="M129.573 118.603c-2 0-4-.9-5.3-2.6-1.1-1.4-1.5-3.2-1.2-4.9.3-1.7 1.2-3.3 2.6-4.3 1.4-1.1 3.2-1.5 4.9-1.2 1.7.3 3.3 1.2 4.3 2.6 2.1 2.9 1.6 7-1.4 9.2-1.2.8-2.6 1.2-3.9 1.2zm0-11.9c-1.1 0-2.2.4-3.2 1.1-1.1.8-1.9 2.1-2.1 3.5-.2 1.4.1 2.8 1 4 1.7 2.4 5.1 2.9 7.4 1.1 2.4-1.7 2.9-5.1 1.1-7.4-.8-1.1-2.1-1.9-3.5-2.1-.2-.1-.5-.2-.7-.2z"/><path fill="#fff" d="M129.573 116.703c-1.4 0-2.9-.7-3.7-1.9-1.5-2.1-1.1-5 1-6.5.3-.2.7-.1.9.1.2.3.2.7-.1.9-.7.5-1.2 1.3-1.3 2.2-.1.9.1 1.8.6 2.5 1.1 1.5 3.3 1.9 4.8.7.3-.2.7-.1.9.1.2.3.2.7-.1.9-1.1.7-2 1-3 1z"/><path fill="#D8D8D8" d="M159.473 130.503c-2.9 1.9-8.5 2.1-12 1.2l-1.9-2.9c-1.5 1-2 3-1 4.6h3.2v11.6l12.5-8.8c.9.3 1.9.2 2.7-.4 1.5-1 1.9-2.9.9-4.4-.9-1.5-2.9-1.9-4.4-.9z"/><path fill="#4A4A4A" d="M147.773 145.603c-.1 0-.2 0-.3-.1-.2-.1-.3-.3-.3-.5v-11h-2.6c-.2 0-.3-.1-.5-.2 0 0-.1-.1-.1-.2-1.1-1.9-.5-4.2 1.3-5.4.1-.1.3-.1.5-.1s.3.1.4.3l1.8 2.7c3.4.8 8.7.5 11.3-1.1 1.8-1.2 4.1-.7 5.3 1.1 1.2 1.8.7 4.1-1.1 5.3-.9.6-1.9.8-3 .5l-12.3 8.6c-.2 0-.3.1-.4.1zm.1-12.9c.2 0 .3.1.5.2.1.1.2.3.2.5v10.4l11.6-8.1c.2-.1.4-.1.5-.1.8.3 1.6.1 2.2-.3 1.2-.8 1.5-2.4.7-3.5-.8-1.2-2.4-1.5-3.5-.7-3 2-8.8 2.2-12.5 1.3-.2 0-.3-.1-.4-.3l-1.5-2.3c-.8.8-1 2-.5 3l2.7-.1z"/><path fill="#BABCB7" d="M140.773 137.203c-.3-.1-.7 0-1 .1-.5.4-.7 1.1-.3 1.6l4.8 7.2c.4.5 1.1.7 1.6.3.2-.1.3-.3.4-.5l1.4-1v-11.6h-3.2"/><path fill="#4A4A4A" d="M145.173 147.303c-.6 0-1.2-.3-1.5-.8l-4.8-7.2c-.3-.4-.4-.9-.3-1.3.1-.5.4-.9.8-1.1.4-.3 1-.4 1.4-.3.1 0 .2 0 .3.1.3.2.4.5.2.8-.2.3-.5.4-.8.3-.1 0-.3 0-.5.1l-.3.3c0 .1 0 .3.1.4l4.8 7.2c.2.3.5.3.8.2.1 0 .2-.1.2-.3 0-.1.1-.2.2-.3l1.2-.8v-10.7h-2.6c-.3 0-.6-.3-.6-.6s.3-.6.6-.6h3.2c.1 0 .3.1.5.2.1.1.2.3.2.5v11.6c0 .2-.1.4-.3.5l-1.3.9c-.1.3-.3.5-.6.6-.2.2-.5.3-.9.3z"/><path fill="#fff" d="M143.673 143.703c-.1 0-.3 0-.3-.2l-3.2-4.9c0-.1-.1-.3-.1-.4 0-.1.1-.3.2-.3s.2-.1.3-.1c.2 0 .4.2.3.4v.1l3.1 4.7c.1.2.1.4-.1.5-.1.2-.2.2-.2.2z"/><path fill="#BABCB7" d="M151.473 140.503c-.8 1.2-1.6 1.7-2.2 2.1-1 .7-1.7.5-1.7.5h-1.6s-1-.3-1.4.8c-.6 1.1-.5 2.4.1 3.4.1.2.3.3.4.5l5.4-3.6 6.3-4.2-.8-2c.1.1-2.6-.1-4.5 2.5z"/><path fill="#4A4A4A" d="M145.073 148.703l-.4-.3c-.2-.2-.3-.4-.5-.6-.8-1.2-.9-2.8-.2-4.1.4-1.1 1.5-1.2 2.1-1.1H147.773s.5 0 1.2-.5l.3-.2c.5-.4 1.2-.8 1.8-1.8 2.1-2.9 5.1-2.7 5.2-2.7h.4l1.1 2.9-12.7 8.4zm.6-4.9c-.2 0-.4.1-.6.4-.5 1-.5 2 .1 2.9l10.9-7.2-.4-1.1c-.8 0-2.4.4-3.7 2.1-.8 1.1-1.6 1.7-2.1 2.1l-.2.2c-1.1.7-1.8.7-2.1.7H145.873c-.1-.1-.1-.1-.2-.1z"/><path fill="#fff" d="M145.373 146.803c-.2 0-.3-.1-.4-.3-.3-.7-.3-1.6.1-2.3.1-.2.2-.3.3-.4 0 0 .2-.1.3-.1h1.8c.2 0 .4.2.4.4s-.2.4-.4.4h-1.6c-.3.5-.3 1.1-.1 1.6.1.2 0 .4-.2.5-.1.2-.1.2-.2.2zm7-5.3c-.1 0-.2 0-.3-.1-.2-.1-.2-.4-.1-.5.4-.5.8-1 1.3-1.3.7-.5 1.4-.7 1.9-.8.2 0 .4.1.5.3 0 .2-.1.4-.3.5-.4.1-1 .2-1.6.6-.4.3-.8.7-1.1 1.1-.1.2-.2.2-.3.2z"/><path fill="#BABCB7" d="M155.273 140.503c.2.3.5.3.8.2l9.9-6.6c.3-.2.3-.5.2-.8l-1-1.5c-.2-.3-.5-.3-.8-.2l-8.7 5.8c-.3.2-.5.4-.5 1l.1 2.1z"/><path fill="#4A4A4A" d="M155.773 141.403c-.4 0-.8-.2-1-.5l-.1-.1-.1-2.3c0-.4.1-1.1.7-1.5l8.7-5.8c.5-.3 1.3-.2 1.6.3l1 1.5c.2.3.3.6.2.9 0 .3-.3.6-.5.8l-9.9 6.6c-.1 0-.3.1-.6.1zm8.8-9.2l-8.6 5.8c-.1.1-.2.1-.2.4l.1 1.7 9.7-6.4-1-1.5zM147.873 135.403c-.3 0-.6-.3-.6-.6s.3-.6.6-.6l6-.2.6-2c.1-.3.5-.5.8-.4.3.1.5.5.4.8l-.8 2.4c-.1.3-.3.4-.6.4l-6.4.2c.1 0 0 0 0 0z"/><path fill="#fff" d="M148.773 142.103c-.3 0-.4-.2-.4-.4l.2-5.7c0-.2.2-.4.4-.4l4.6-.3c.2 0 .4.2.4.4s-.2.4-.4.4l-4.2.3-.2 5.3c0 .3-.2.4-.4.4zM145.173 132.703c-.2 0-.3-.1-.4-.3 0 0-.5-1.4.4-2.6.1-.2.4-.2.5-.1.2.1.2.4.1.5-.7.9-.3 1.9-.3 1.9.1.2 0 .4-.2.5 0 .1-.1.1-.1.1zM156.273 138.603c-.1 0-.3 0-.3-.2-.1-.2-.1-.4.1-.5l8.3-5.5c.2-.1.4-.1.5.1.1.2.1.4-.1.5l-8.3 5.5c-.1.1-.2.1-.2.1z"/><path fill="#BABCB7" d="M148.373 132.004l-8.7 6.4c-1.2.9-2.9.6-3.7-.5-.9-1.2-.6-2.9.5-3.7l8.7-6.4c1.2-.9 2.9-.6 3.7.5 1 1.2.7 2.8-.5 3.7z"/><path fill="#4A4A4A" d="M138.173 139.603h-.5c-.9-.1-1.6-.6-2.1-1.3-1.1-1.5-.8-3.5.7-4.6l8.7-6.4c1.5-1.1 3.5-.8 4.6.7 1.1 1.5.8 3.5-.7 4.6l-8.7 6.4c-.6.4-1.3.6-2 .6zm8.6-11.7c-.4 0-.8.1-1.2.4l-8.7 6.4c-.9.7-1.1 1.9-.4 2.8.3.4.8.7 1.3.8.5.1 1.1 0 1.5-.4l8.7-6.4c.9-.7 1.1-1.9.4-2.8-.3-.4-.8-.7-1.3-.8h-.3z"/><path fill="#fff" d="M138.173 137.703h-.2c-.4 0-.7-.3-.9-.5-.5-.6-.3-1.5.3-1.9l8.7-6.4c.3-.2.7-.2.9.1.2.3.2.7-.1.9l-8.7 6.4s-.1.1 0 .2c0 0 .1.1.2 0 .3-.2.7-.1.9.1.2.3.2.7-.1.9-.4.1-.7.2-1 .2zM122.573 118.203l-17.7-1.7c-.7.1-4.6.6-9.7-3.3-.3-.2-.3-.6-.1-.9.2-.3.6-.3.9-.1 5 3.9 8.7 3.1 8.8 3.1h.2l17.8 1.7c.3 0 .6.3.5.7-.1.2-.3.5-.7.5zM121.873 105.703c-.2 0-.4-.1-.5-.3-.2-.3-.2-.7.1-.9l7.8-5.8c.3-.2.7-.1.9.1.2.3.2.7-.1.9l-7.8 5.8c-.2.1-.3.2-.4.2z"/><path fill="#4A4A4A" d="M94.173 79.103c-.2 0-.4-.1-.5-.3-.2-.3-.2-.7.1-.9l4.5-3.4c.3-.2.7-.2.9.1.2.3.2.7-.1.9l-4.5 3.5c-.2 0-.3.1-.4.1z"/><path fill="#fff" d="M107.673 94.303c-.2 0-.4-.1-.5-.3l-6.1-8.3c-.2-.3-.2-.7.1-.9.3-.2.7-.2.9.1l6.1 8.3c.2.3.2.7-.1.9-.1.2-.2.2-.4.2zM99.273 82.903c-.2 0-.4-.1-.5-.3l-1.9-2.6-1.1-1c-.3-.3-.3-.6 0-.9.3-.3.6-.3.9 0l1.2 1.1 2 2.6c.2.3.2.7-.1.9-.2.2-.4.2-.5.2zM94.073 77.603c-.1 0-.3 0-.4-.1-1.2-.9-3.3-1.1-4.1-1.1-.3 0-.6-.3-.6-.7 0-.3.3-.6.7-.6 1.2 0 3.4.3 4.8 1.4.3.2.3.6.1.9-.2.1-.4.2-.5.2z"/><path fill="#B1B1B1" d="M105.473 85.703a1.4 1.4 0 100-2.8 1.4 1.4 0 000 2.8z"/><path fill="#4A4A4A" d="M105.473 86.303c-1.1 0-2.1-.9-2.1-2.1 0-1.1.9-2.1 2.1-2.1 1.1 0 2.1.9 2.1 2.1-.1 1.2-1 2.1-2.1 2.1zm0-2.8c-.4 0-.8.3-.8.8 0 .4.3.8.8.8.4 0 .8-.3.8-.8s-.4-.8-.8-.8zM87.773 11.203l-12.2-5c-.3-.1-.7-.2-1.1-.2-1.1 0-2.1.7-2.5 1.7l-5 12.4-1.3-2.4c1.4-1.1 2.4-2.7 2.6-4.5v-.1c.2-1.6-.1-3.3-.8-4.9l-2.4-5.3c-.2-.5-.5-1-.8-1.5-.1-.2-.3-.3-.5-.2-.4.2-.8.4-1.3.7l-.2-.5c-.2-.4-.4-.8-.6-1.1-.1-.3-.3-.4-.5-.3-1.6.7-2.9 2-3.8 3.6-1.6-.2-3.1.1-4.6.7-.2.1-.3.3-.3.5.1.3.2.7.3 1l1.2 2.7c-.3.1-.5.2-.8.3-.2.1-.3.3-.3.5.1.5.3.9.4 1.3l2.1 4.4c1.1 2.4 3.5 4 6.2 4 .6 0 1.2-.1 1.7-.2l.9 1.8c-.4-.1-.8-.3-1.2-.3-2.4-.4-4.8.5-6.4 2.3-.1.1-.1.3-.1.4.8 2.3 2.8 4 5.2 4.4.4.1.8.1 1.2.1.3 0 .7 0 1-.1l-2.1 5.1c-.3.7-.3 1.4 0 2.1.3.7.8 1.2 1.5 1.5l12.2 5c.3.1.7.2 1.1.2 1.1 0 2.1-.7 2.6-1.7l10.2-24.9c.5-1.4-.2-3-1.6-3.5zm-11.2 29.3c-.3 0-.5 0-.7-.1l-12.2-5c-.5-.2-.8-.5-1.1-1-.3-.5-.2-1 0-1.5l2.4-5.8v-.1l2.3-5.6v-.1l5.5-13.3c.3-.7 1-1.2 1.8-1.2.3 0 .5 0 .7.1l12.2 5c1 .4 1.4 1.5 1.1 2.5l-10.2 24.9c-.3.8-1 1.2-1.8 1.2zm-12.8-38.4c.2.3.4.7.5 1l2.4 5.3c.4 1.2.7 2.4.7 3.6-2.2-2.4-5.3-3.9-8.6-4.1.9-2.6 2.7-4.6 5-5.8zm-2.6-1l.3.6.3.6c-.7.5-1.4 1.2-2 2-.5-.2-1-.3-1.5-.5.7-1.2 1.7-2.1 2.9-2.7zm-7.6 4.5c-.1-.2-.1-.3-.2-.5 1.3-.5 2.7-.7 4.1-.5.6.1 1.2.2 1.7.4-.6.9-1.1 1.8-1.4 2.9-1.1 0-2.1.2-3 .5l-1.2-2.8zm7.9 12.6c-2.4 0-4.5-1.4-5.4-3.5l-1.9-4.3c-.1-.3-.2-.5-.3-.8 1.3-.5 2.8-.8 4.2-.8 3.6 0 7 1.7 9.2 4.5-.3 2-1.6 3.7-3.4 4.5-.8.3-1.6.4-2.4.4zm2.8.3l.6-.3 1.6 3-.5 1.1-1.9-3.7c.1 0 .1-.1.2-.1zm-2.5 8.1c-2-.4-3.7-1.7-4.4-3.6 1.4-1.5 3.4-2.2 5.4-1.8.7.1 1.4.4 2 .8l.7 1.4-1.3 3.2c-.7.1-1.5.2-2.4 0z"/><path fill="#4A4A4A" d="M84.873 15.003l-9.9-4c-.3-.1-.5-.2-.8-.2-.8 0-1.6.5-1.9 1.3l-6.6 16.2v.2c-.2.8 0 1.6.6 2.1.1.1.3.3.6.4l9.9 4c.3.1.5.2.8.2.8 0 1.6-.5 1.9-1.3l6.6-16.2c.3-1-.2-2.3-1.2-2.7zm-7.4 19.3c-.2 0-.3 0-.4-.1l-10-4c-.1 0-.2-.1-.3-.2-.3-.3-.5-.8-.3-1.2v-.1l6.6-16.2c.2-.4.6-.7 1.1-.7.2 0 .3 0 .4.1l9.9 4c.6.3.9.9.6 1.5l-6.6 16.2c-.1.4-.5.7-1 .7z"/><path fill="#4A4A4A" d="M80.173 17.103l-9 4.5c-.2.1-.3.3-.3.6s.2.5.4.5l2.6 1.1-3 4.1c-.1.2-.2.4 0 .6.1.2.3.3.5.3.1 0 .2 0 .3-.1l9-4.5c.2-.1.3-.3.3-.6s-.2-.5-.4-.5l-2.6-1.1 3-4.1c.1-.2.2-.4 0-.6-.1-.2-.5-.3-.8-.2zm-3.3 5c-.1.1-.1.3-.1.4 0 .1.1.3.3.3l2.6 1.1-7.6 3.8 2.7-3.7c.1-.1.1-.3.1-.4 0-.1-.1-.3-.3-.3l-2.6-1.1 7.6-3.8-2.7 3.7zM78.573 11.303l3.5 1.4c.2.1.3.1.5 0 .3-.1.5-.5.4-.9-.1-.2-.2-.3-.4-.4l-3.5-1.4c-.2-.1-.3-.1-.5 0-.3.1-.5.5-.4.9.1.2.2.3.4.4zM71.473 33.603c-.3-.1-.5-.2-.8-.2-.8 0-1.6.5-1.9 1.2-.2.5-.2 1.1 0 1.5.2.5.6.9 1.1 1.1.3.1.5.2.8.2.8 0 1.6-.5 1.9-1.2.4-1-.1-2.2-1.1-2.6zm.3 2.3c-.2.4-.6.7-1.1.7-.1 0-.3 0-.4-.1-.3-.1-.5-.3-.6-.6-.1-.3-.1-.6 0-.8.2-.4.6-.7 1.1-.7.1 0 .3 0 .4.1.3.1.5.3.6.6.1.2.1.5 0 .8zM38.673 90.703c1.8-2.8.9-6.5-1.9-8.2-2.5-1.6-5.8-1-7.7 1.2.3-.9-.1-1.9-1.1-2.3l-2.1-.9c-.8-.3-1.7 0-2.1.7-.1.1-.1.2-.2.3-.3.9.1 1.9 1 2.3l2.1.9c.6.2 1.3.1 1.8-.3-1.6 2.8-.8 6.4 2 8.1 2.8 1.8 6.4 1 8.2-1.8zm-9.2-5.8c1.4-2.3 4.5-3 6.8-1.6s3 4.5 1.6 6.8-4.5 3-6.8 1.6-3-4.5-1.6-6.8zm-4.9-3s0-.1.1-.1c.2-.3.5-.4.9-.3l2.1.9c.4.2.6.6.5 1 0 0 0 .1-.1.1-.2.3-.5.4-.9.3l-2.1-.9c-.5-.1-.7-.6-.5-1zM38.273 99.403c.4.3.9.3 1.4.2.4-.1.8-.4 1.1-.8.3-.4.3-.9.2-1.4l-.6-2.3c-.3-1-1.3-1.5-2.2-1.3-.4.1-.8.4-1.1.8-.3.4-.3.9-.2 1.4l.5 2.2c.1.6.4.9.9 1.2zm.1-4.6c.4-.1.8.1.9.5l.5 2.3c0 .2 0 .4-.1.6-.1.2-.3.3-.4.3-.4.1-.8-.1-.9-.5l-.5-2.3c0-.2 0-.4.1-.6 0-.1.2-.2.4-.3zM26.773 97.603l1.9-1.3c.2-.1.3-.3.4-.5.4-.6.4-1.5-.1-2.1-.3-.4-.7-.6-1.2-.7-.5 0-.9.1-1.3.3l-1.9 1.3c-.2.1-.3.3-.4.5-.4.6-.4 1.5.1 2.1.6.9 1.7 1 2.5.4zm-1.6-2.1l1.9-1.3c.3-.3.8-.2 1.1.1.2.3.2.6 0 .9 0 .1-.1.1-.2.2l-1.9 1.3c-.3.3-.8.2-1.1-.1-.2-.3-.2-.6 0-.9.1 0 .1-.1.2-.2z"/><path fill="#4A4A4A" d="M55.173 65.703c-3.4-3.5-8.9-4.1-12.9-1.3-1.8 1.2-3.1 2.9-3.8 4.9-8-2.1-16.8 1-21.4 8.4-.3.5-.5.9-.8 1.5-.1.3 0 .5.2.7 0 0 .1 0 .1.1 1 .6 1.6 1.7 1.4 2.9 0 .3.2.5.5.5.5 0 1 .2 1.4.5 1.2.8 1.7 2.4 1.1 3.7-.1.3 0 .5.2.7h.1c1.4.9 1.9 2.8 1 4.3-.1.2-.2.3-.3.5-.2.2-.2.4 0 .6.5.9.6 2 .2 2.9 0 .1-.1.3-.2.4-.4.7-1.1 1.1-1.8 1.3-.2 0-.4.3-.4.5 0 .6-.2 1.1-.5 1.6-.1.2-.1.5 0 .7 1.1 1.2 2.4 2.2 3.7 3.1 9 5.7 21 2.9 26.7-6.1 2-3.2 2.9-6.7 2.9-10.2l9.9-6.7c.3-.2.4-.3.5-.5.5-.8.3-1.8 0-2.3l-3.1-5.2c0-.1.1-.1.1-.2 1-1.6 1-3.7-.1-5.3-.9-1.6-2.8-2.4-4.7-2zm4 2.7c.9 1.4.8 3.3-.2 4.6-.3.3-.5.5-.8.7-.3.3-.7.4-1.1.5-.4.1-.9.2-1.3.1h-.2-.1l-.1.1v.1c-.3.8-.8 1.6-1.5 2.1s-1.6.7-2.4.6c-.2 0-.3.1-.5.2v.1c-.1.3-.2.6-.4.8-.1.2-.2.3-.3.4l-.4.4c-.1.1-.3.2-.4.3-.6.4-1.4.7-2.2.7h-.3c-.1 0-.3 0-.3.1l-.1.1s0 .1-.1.2c0 .1 0 .1-.1.2-.1.3-.3.6-.4.8-.1.1-.1.2-.2.3-.3.3-.5.5-.8.7-.2.1-.4.3-.6.3-.1 0-.2.1-.3.1-1.6.5-3.4-.1-4.3-1.5-.1-.1-.2-.3-.3-.4-.1-.2-.2-.3-.2-.5-.1-.2-.1-.4-.1-.6-.1-.7 0-1.5.3-2.1.1-.2.2-.3.3-.5.1-.2.2-.3.3-.4.1-.2.2-.4.1-.5-.2-.4-.3-.8-.5-1.2 0-.2-.1-.3-.1-.5s-.1-.3-.1-.5c-.2-1.3-.2-2.6.1-3.8 0-.2.1-.3.1-.5s.1-.3.2-.5c.6-1.7 1.8-3.3 3.4-4.3 3.7-2.5 8.8-1.9 11.8 1.4.1.1.3.2.5.2 1.1-.3 2.8.3 3.6 1.7zm.2 5.7l2.9 4.9c0 .1.5 1.1-.2 1.5l-9.4 6.4-.5.3-.5.3-1.7 1.2c-.4.3-.8.3-1 .3-.2 0-.4-.1-.5-.2l-.3-.3-.3-.3-3.2-4.2c.1 0 .1-.1.2-.1h.1c.1 0 .2-.1.3-.2.1-.1.3-.2.4-.3.1-.1.3-.2.4-.3.1-.2.3-.3.4-.5 0-.1.1-.2.2-.2.1-.2.2-.3.3-.5 0 0 0-.1.1-.2s.1-.2.1-.3h.4c.3 0 .7-.1 1-.2.3-.1.6-.2.9-.4h.1c.1 0 .2-.1.3-.2.1-.1.2-.1.3-.2l.4-.4.4-.4c.1-.1.1-.2.2-.3.1-.1.1-.2.2-.3 0-.1.1-.2.2-.3.1-.1.1-.2.1-.3 1 0 1.9-.3 2.7-.8.2-.2.4-.3.6-.5.3-.3.6-.7.8-1.1l.3-.6h.2c.4 0 .8-.1 1.1-.2.1 0 .3-.1.4-.1.1 0 .2-.1.3-.1.3-.1.5-.3.8-.4.1-.1.2-.1.3-.2 0-.2.1-.2.2-.3zm-10.5 23.6c-5.4 8.5-16.7 11.1-25.3 5.8-1.2-.8-2.3-1.6-3.3-2.6.3-.5.4-1 .5-1.6.8-.3 1.5-.9 2-1.6.3.3.5.8.8 1.3.3.8.7 1.6 1.5 2.1s1.7.5 2.5.4h.2c.5 0 1 0 1.3.1.5.1.9.5 1.4.8.7.5 1.4 1.1 2.3 1.1.9 0 1.6-.5 2.4-.9.5-.3 1-.6 1.4-.7.5-.1 1 0 1.6 0 .8.1 1.8.2 2.5-.2.5-.3.8-.7 1.1-1.1.2-.3.3-.5.5-.8.3-.5.5-1 .9-1.3.3-.3.8-.5 1.3-.8.8-.3 1.6-.7 2.1-1.5s.5-1.7.4-2.5c0-.6 0-1.1.1-1.5.1-.5.5-.9.8-1.4.2-.3.4-.5.6-.8.5.2 1.3.1 2.1-.4l1.1-.8c-.1 3.1-1 6.1-2.8 8.9zm-25.5-1c.3-1.1.3-2.2-.3-3.2.1-.1.2-.2.2-.3 1.2-1.9.7-4.3-1.1-5.6.5-1.6 0-3.4-1.4-4.4v-.6-.5c0-.8 0-1.5.3-1.9.3-.5 1-.8 1.6-1.1.1 0 .1-.1.2-.1.5-.2 1-.5 1.4-.8.5-.4.8-1.1 1.1-1.6.3-.6.7-1.3 1.1-1.5.5-.3 1.2-.2 1.9-.1.3 0 .5 0 .8.1l.8 2.9c.3 1 1.3 1.5 2.2 1.3.4-.1.8-.4 1.1-.8.3-.4.3-1 .2-1.4l-.8-3v-.2c.4-.3.8-.4 1.2-.4.5 0 1.1.4 1.7.9.5.4 1.1.8 1.7 1 .3.1.6.1.9.1.1.5.3.9.5 1.3-.1.1-.2.3-.3.4-.3.1-.6.3-.8.5l-1.5 1.7s-.1.1-.1.2c-.5.8-.3 1.8.4 2.4.4.3.8.5 1.3.4.3 0 .5-.1.7-.3 0 .1.1.2.2.3 1.1 1.7 3.2 2.4 5.1 2l3.7 4.8c.1.1.1.2.3.3-.1.3-.3.5-.5.7-.4.5-.8 1.1-1 1.7-.2.6-.2 1.3-.1 1.9 0 .8 0 1.5-.3 1.9-.3.5-1 .8-1.6 1.1-.6.3-1.2.5-1.6.9l-.2.2v.1l-.1.1-.1.1s0 .1-.1.1 0 .1-.1.1c0 0 0 .1-.1.1-.1.1-.1.3-.2.3-.1.1-.1.3-.2.4-.3.6-.7 1.3-1.1 1.5-.5.3-1.2.2-1.9.1-.6-.1-1.3-.1-1.9 0-.6.1-1.2.5-1.7.8-.6.4-1.2.8-1.8.8-.5 0-1.1-.4-1.7-.9-.5-.4-1.1-.8-1.7-1-.6-.2-1.3-.2-1.9-.1-.8 0-1.5 0-1.9-.3-.5-.3-.8-1-1.1-1.6-.3-.6-.5-1.2-.9-1.6-.3 0-.4-.1-.5-.2zm-6.1-17.5c.2-.3.4-.7.5-1 4.4-6.9 12.7-10 20.2-7.9-.3 1.3-.4 2.7-.2 4.1-.1 0-.2 0-.3-.1-.5-.1-.9-.5-1.4-.8-.7-.5-1.4-1.1-2.3-1.1-.7 0-1.3.3-1.9.6-.4-.3-1-.4-1.5-.3-.4.1-.8.4-1.1.8.1.2.1.4 0 .5-.2 0-.4 0-.7-.1-.8-.1-1.5-.2-2.2.1-.1 0-.2.1-.3.1-.8.4-1.2 1.2-1.6 1.9-.3.5-.5 1-.9 1.3-.3.3-.8.5-1.3.8-.8.3-1.6.7-2.1 1.5s-.5 1.7-.4 2.5v.3c-.3-.1-.5-.2-.7-.2-.1-1.1-.7-2.3-1.8-3zm20.6 1.9c-.3.2-.7.2-1 0-.3-.3-.4-.7-.2-1v-.1l.9-1c.1.8.1 1.5.3 2.1zm-6.3-7.2c.1.1.2.2.2.3v.1l.8 2.9c0 .2 0 .4-.1.6-.1.2-.3.3-.5.3-.4.1-.8-.1-.9-.5l-.6-2.6-.1-.4v-.1c0-.2 0-.3.1-.5 0 0 .1-.1.1-.2.1-.1.2-.1.3-.2h.1c.2.1.4.1.6.3zM51.973 135.003l-2.5 6.4c-1.1 2.7 2.3 6.4 7.6 8.4 5.3 2.1 10.2 1.6 11.3-1.1l.5-1.4c1.1.8 2.5 1.6 4 2.1 4.8 1.9 9.4 1.4 10.3-1.1l2.7-7c0-.1.1-.1.1-.2 1-2.5-2.1-5.9-6.9-7.7-3.2-1.3-6.3-1.5-8.3-.8.4-.3.7-.7.9-1.1 1-2.5-2.1-5.9-6.9-7.7-4.8-1.9-9.4-1.4-10.3 1.1 0 .1 0 .1-.1.2l-2.7 6.9c-.5.9-.3 2 .3 3zm5.5 14c-4.7-1.8-7.9-5.1-7.1-7.2l2.3-5.9c.8 2.2 3.6 4.6 7.5 6.1s7.5 1.6 9.6.5l-2.3 5.9c-.8 2.1-5.4 2.4-10 .6zm3.8-16.4c.8.3 1.6.6 2.4.8 4.5 1.8 7.7 5 6.8 7.1-.8 2.1-5.5 2.4-10.1.6-4.7-1.8-7.9-5.1-7.1-7.2.7-1.8 3.9-2.3 7.7-1.4.2 0 .3 0 .3.1zm5.3 1.1c1.1 0 2.1-.1 3-.4-.4.3-.7.7-.9 1.1-.1.2-.1.4-.1.5-.6-.3-1.2-.8-2-1.2zm15.9 14.4c-.8 1.9-5 2.2-9.2.5-1.5-.6-2.9-1.3-4-2.2l2.1-5.4c0-.1.1-.2.1-.2.1-.3.2-.5.2-.8 1.2.9 2.6 1.6 4.1 2.2 3.5 1.3 6.9 1.5 8.8.5l-2.1 5.4zm-3.7-13.8c4.2 1.6 7.2 4.7 6.4 6.6-.8 1.9-5 2.2-9.2.5-1.7-.7-3.2-1.6-4.5-2.6l-.1.1c-.3-1.1-1-2.1-2.1-3.2h.1c0-.3 0-.6.1-.9.8-1.9 5-2.2 9.3-.5zm-14.4-9.7c4.2 1.6 7.2 4.7 6.4 6.6-.6 1.6-3.5 2-6.9 1.3h-.2c-.9-.3-1.7-.6-2.6-.8-4.1-1.7-6.9-4.6-6.1-6.5 1-2 5.2-2.2 9.4-.6zm-9.9 2.5c.5 1.4 2 2.9 4 4.1-2.9-.2-5.2.6-5.8 2.4 0 .1 0 .2-.1.3v.1c-.2-.5-.3-1-.1-1.5l2-5.4z"/><path fill="#4A4A4A" d="M62.473 129.603c2.2.8 4.2.6 4.6-.6.5-1.2-.8-2.7-3-3.6-2.2-.8-4.2-.6-4.6.6-.5 1.2.8 2.8 3 3.6zm1.3-3.3c1.7.7 2.7 1.8 2.5 2.4-.2.6-1.8.8-3.5.1-1.7-.7-2.7-1.8-2.5-2.4.2-.6 1.8-.8 3.5-.1zM76.873 139.303c2.2.8 4.2.6 4.6-.6.4-1.2-.8-2.7-3-3.6-2.2-.8-4.2-.6-4.6.6-.5 1.2.8 2.7 3 3.6zm1.2-3.3c1.7.7 2.7 1.8 2.5 2.4-.2.6-1.8.8-3.5.1-1.7-.7-2.7-1.8-2.5-2.4.3-.6 1.8-.8 3.5-.1zM61.373 138.703c2.4.9 4.5.6 5-.6.5-1.3-.9-2.9-3.3-3.8-2.4-.9-4.5-.6-5 .6-.4 1.3 1 2.9 3.3 3.8zm1.5-3.6c1.9.7 3 2 2.8 2.7-.3.7-1.9.8-3.9.1-1.9-.7-3-2-2.8-2.7.2-.6 2-.8 3.9-.1zM82.073 159.003c0-.7-.3-1.3-1-1.6-.2 0-.3-.1-.5-.1l-18.6-1.1 18.8-2.1c.4 0 .8-.3 1.1-.6.3-.3.4-.7.3-1.1-.1-.6-.4-1.1-1-1.3-.3-.1-.5-.1-.7-.1l-37.6 4.1c-.4 0-.8.3-1.1.6-.3.3-.4.7-.3 1.1.1.6.4 1.1 1 1.3.2.1.5.1.7.1l.7-.1 36.5 2.3c.4 0 .8-.1 1.1-.4.4-.2.5-.5.6-1zm-39.1-2.9l37.6-4.2h.3c.2.1.4.3.4.5 0 .4-.2.7-.6.7l-36.8 4.1-1.1-.1h-.2-.1c-.1-.1-.1-.2-.2-.3 0-.3.3-.7.7-.7zm37.5 3.5l-31.4-1.9 7.7-.8 23.8 1.5h.2c.3.1.4.4.4.7-.1.2-.3.5-.7.5zM210.173 127.903c.4-.5.6-1.1.5-1.6-.4-3.5-2.5-6.3-5.4-7.1l-3.6-1.1.7-2.4c.8-2.6.5-5.4.1-7.4-.1-.6-.2-2.3 0-3l.5-1.9h.1c.6.2 1.2-.2 1.4-.8l.3-1c.2-.6-.2-1.2-.8-1.4l-7.7-2.2c-.6-.2-1.2.2-1.4.8l-.3 1c-.2.6.2 1.2.8 1.4h.1l-.5 1.9c-.2.7-1.2 2.1-1.6 2.5-1.3 1.4-3.1 3.7-3.9 6.3l-.1.5c-.7-.9-1.6-1.6-2.8-1.9-1-.3-2-.3-2.9 0 .1-3.1-1.1-6.1-3.4-8.3-.2-.1-.4-.2-.6 0-2.2 1.6-3.8 4-4.3 6.7-.6-.5-1.3-.8-1.9-1.1-.2-.1-.4 0-.5.1-1 1.4-1.7 3-2 4.7l-1-.3c-.3-.1-.5.1-.5.3-1.4 4.9-.7 10.1 2 14.4 0 .1.2.2.3.2l13.9 4h.1c.2.2.5.3.8.4l18.6 5.4c1.2.3 2.4-.3 2.8-1.5.2-.5.1-1.1-.1-1.6.5-.1 1-.5 1.1-1 .2-.7-.2-1.5-.9-1.7h-.1l.2-.2c.2.2.3.3.5.4h.4c.1 0 .2-.2.3-.3l.5-1.6c.1-.4.1-.8 0-1.1-.1 0 .1-.2.3-.5zm-.4-1.5c0 .3-.1.7-.3 1-.2.2-.4.3-.6.3h-.1c-.2-.1-.3-.2-.5-.3l-20-5.8v-.1c-.2-.3-.3-.9.1-1.4 2-2.5 4.8-3.6 7.4-2.8l9.3 2.7c2.6.8 4.4 3.2 4.7 6.4zm-19.3-10.9c1.2-1 2.6-1.7 4.2-2.1.3.9.5 1.9.6 2.9-1.7-.3-3.4 0-5 1 .2-.6.3-1.2.2-1.8zm5-15.4l.3-1c0-.1.2-.2.3-.2l7.7 2.2c.1 0 .2.2.2.3l-.3 1c0 .1-.2.2-.3.2l-7.7-2.2c-.1 0-.2-.2-.2-.3zm-1.4 6.2c.2-.2 1.5-1.9 1.8-2.9l.5-1.9 5.8 1.7-.5 1.9c-.3 1 0 3.1 0 3.4.3 1.9.6 4.6 0 6.9l-.7 2.4-4.7-1.3c0-1.3-.3-2.6-.8-3.8-.1-.2-.3-.3-.5-.3-1.6.3-3.2 1-4.5 2-.1-.3-.2-.7-.4-1l.4-1.3c.6-2.3 2.3-4.4 3.6-5.8zm-5 7.3c.3.5.5 1.1.5 1.7v.1c0 .5 0 1.1-.2 1.6-.1.3-.2.6-.3.8l-2.9-.8c-.2-2.1-.9-4-2.2-5.7.8-.2 1.6-.2 2.3 0 1.3.5 2.2 1.2 2.8 2.3zm-15.7-4.9c.7.3 1.3.8 2 1.3.1.1.3.1.5.1s.3-.2.3-.4c.3-2.6 1.7-5 3.8-6.6 2 2 3.1 4.8 2.9 7.7v.1c0 .1 0 .3.1.3 1.3 1.5 2.2 3.4 2.4 5.4l-13.5-3.9c.1-1.3.7-2.7 1.5-4zm-3.3 4.6l1 .3h.2l14.3 4.1h.2l2.8.8c-.3.3-.6.6-.9 1-.5.6-.6 1.4-.3 2.1-.5.2-1 .6-1.1 1.2l-.4 1.5c-.1.2 0 .5.3.5h.1c.3.1.7 0 1-.1 0 .2 0 .3.1.5h-.1c-.7-.2-1.5.2-1.7.9-.2.5 0 1.1.4 1.4-.5.3-.8.7-.9 1.3-.1.4-.1.8 0 1.3l-12.8-3.7c-2.6-3.9-3.3-8.6-2.2-13.1zm35.1 22.9l-18.5-5.4c-.7-.2-1.1-1-.9-1.7.2-.7.8-1.1 1.5-1l18.9 5.5c.6.3 1 1 .8 1.6-.3.8-1.1 1.2-1.8 1zm2.7-3.5c-.1.3-.3.4-.6.3l-20.7-6c-.3-.1-.4-.3-.3-.6.1-.3.3-.4.6-.3l1.6.5 17.5 5 1.6.5c.2.1.4.4.3.6zm-19.2-6.9c-.5-.2-.8-.7-.7-1.2l.2-.5h.2c.1 0 .3.1.3.3l.1.6c.1.5.5.9 1 1 .5.1 1 0 1.3-.3l.5-.5c.2-.2.4-.1.5-.1.1 0 .3.1.3.3l.1.6c.1.5.5.9 1 1 .5.1 1 0 1.3-.3l.5-.5c.2-.2.4-.1.5-.1.1 0 .3.1.3.3l.1.6c.1.5.5.9 1 1 .5.1 1 0 1.3-.3l.5-.5c.2-.2.4-.1.5-.1.1 0 .3.1.3.3l.1.6c.1.5.5.9 1 1 .5.1 1 0 1.3-.3l.5-.5c.2-.2.4-.1.5-.1.1 0 .3.1.3.3l.1.6c.1.5.5.9 1 1 .5.1 1 0 1.3-.3l.5-.5c.2-.2.4-.1.5-.1.1 0 .2.1.2.1s.1.1.1.2l-.1.3c-.2.5-.7.8-1.2.7l-17.2-4.6zm19.8 4.2l-.1-.4c0-.2-.2-.4-.3-.6-.2-.2-.4-.3-.6-.4-.5-.1-1 0-1.3.3l-.5.5c-.2.2-.4.1-.5.1-.1 0-.3-.1-.3-.3l-.1-.6c-.1-.5-.5-.9-1-1-.5-.1-1 0-1.3.3l-.5.5c-.2.2-.4.1-.5.1-.1 0-.3-.1-.3-.3l-.1-.6c-.1-.5-.5-.9-1-1-.5-.1-1 0-1.3.3l-.5.5c-.2.2-.4.1-.5.1-.1 0-.3-.1-.3-.3l-.1-.6c-.1-.5-.5-.9-1-1-.5-.1-1 0-1.3.3l-.5.5c-.2.2-.4.1-.5.1-.1 0-.3-.1-.3-.3l-.1-.6c-.1-.5-.5-.9-1-1-.5-.1-1 0-1.3.3l-.5.5c-.2.2-.4.1-.5.1-.1 0-.3-.1-.3-.3l-.1-.6c-.1-.5-.5-.9-1-1-.2 0-.4-.1-.6 0-.1 0-.2 0-.3.1-.1 0-.2.1-.3.2l-.5.5h-.1l.3-.9c.1-.5.6-.7 1.1-.6l20 5.8c.4.1.7.6.5 1l-.6.3z"/><path fill="#4A4A4A" d="M194.773 118.503c-.2-.1-.5 0-.5.3 0 .2.1.5.3.5.3.1.5 0 .5-.3.1-.2 0-.5-.3-.5zM196.073 121.803c.3.1.5 0 .5-.3 0-.2-.1-.5-.3-.5-.2-.1-.5 0-.5.3s0 .4.3.5zM199.873 121.603c.2.1.5 0 .5-.3 0-.2-.1-.5-.3-.5-.3-.1-.5 0-.5.3-.1.3.1.5.3.5zM202.073 124.303c0 .2.1.5.3.5.3.1.5 0 .5-.3s-.1-.5-.3-.5c-.2 0-.5.1-.5.3zM204.773 124.503a.4.4 0 100-.8.4.4 0 000 .8zM206.173 122.703c.3.1.5 0 .5-.3 0-.2-.1-.5-.3-.5-.2-.1-.5 0-.5.3 0 .2.1.5.3.5zM207.973 125.703c.2.1.5 0 .5-.3 0-.2-.1-.5-.3-.5-.3-.1-.5 0-.5.3 0 .2.1.4.3.5zM191.573 120.303c-.2-.1-.5 0-.5.3 0 .2.1.5.3.5.3.1.5 0 .5-.3s-.1-.4-.3-.5zM202.773 120.903c.3.1.5 0 .5-.3 0-.2-.1-.5-.3-.5-.3-.1-.5 0-.5.3 0 .2.1.4.3.5zM149.673 45.403l-3.3-3.1-2-1.9-2.4-2.3-2-1.9-2.4-2.3-2-1.9-1.2-1 5.3-1.6c.6-.2 1-.7 1.1-1.3.1-.6-.1-1.2-.6-1.6l-5.6-4 .1-6.9c0-.6-.3-1.1-.8-1.4-.5-.3-1.2-.2-1.6.1l-5.5 4-6.5-2.3c-.2 0-.3-.1-.5-.1-.4 0-.8.2-1.1.5-.4.4-.6 1.1-.4 1.6l2.1 6.5-4.1 5.5c-.4.5-.4 1.1-.2 1.6.3.5.8.9 1.4.9h6.9l3.9 5.6c.3.4.8.7 1.3.7h.3c.6-.1 1.1-.5 1.3-1.1l1.2-3.9 3.4 3.7.3.3 2.3 2.5 1.9 2.1 2.3 2.5 1.9 2.1 1.7 1.9c.2.2.4.3.8.3.3 0 .5 0 .9-.2.5-.2 1.1-.6 1.3-.8.3-.3.5-.7.8-1.2.2-.8 0-1.4-.3-1.6zm-5.2.6l-1.3-1.3 1.1-3.2 1.3 1.2-1.1 3.3zm-3.5-3.8l1-2.9 1.7 1.6-1.1 3.1-1.6-1.8zm-4.3-4.6l.8-2.5 1.7 1.6-.9 2.6-1.6-1.7zm.2-3.1l-.8 2.4-1.3-1.4.8-2.3 1.3 1.3zm2.2 5.6l.9-2.7 1.3 1.2-1 2.9-1.2-1.4zm-8.9-2.5c-.1.3-.3.5-.6.5s-.5-.1-.7-.3l-4-5.8c-.1-.1-.2-.2-.3-.2h-7.1c-.3 0-.5-.2-.7-.4-.2-.2-.1-.5.1-.8l4.3-5.6c.1-.1.1-.3.1-.4l-2.2-6.7c-.1-.3 0-.5.2-.8.2-.2.5-.3.8-.2l6.7 2.3h.4l5.7-4.2c.2-.2.5-.2.8 0 .3.1.4.4.4.7l-.1 7.1c0 .1 0 .3.2.3l5.7 4.1c.2.2.3.4.3.7 0 .3-.3.5-.5.6l-6.8 2.1c-.1 0-.3.1-.3.3l-2.4 6.7zm2.3-4.5l.5-1.8.3-.1 1.5 1.4-.8 2.2-1.5-1.7zm16.6 13.6c-.1.4-.4.8-.6.9-.2.2-.6.5-1 .6-.5.2-.7.2-.8.1l-1.6-1.7 1.1-3.4 2.8 2.6c.2.3.2.6.1.9zM179.173 58.403c-.3-1.2-1.5-2-2.7-1.8l-.5.1-.3-2.1c0-.4-.3-.8-.6-1.1-.3-.3-.7-.4-1.1-.3l-.5.1 1.7-8.2c.4-2.1-.9-4.2-3-4.6-1-.2-2.1 0-2.9.5-.9.5-1.5 1.4-1.7 2.4l-1.5 7.1-.3 1.4-2.4.5-.9-4.6c-.3-1.2-1.4-2-2.6-1.7-1.2.3-2 1.4-1.7 2.6l1.6 7.6c-.2-.2-.4-.3-.5-.5.2-.3.2-.7 0-1-.2-.4-.6-.5-1.1-.5l-1 .3-.8-.7c-.3-.2-.5-.3-.8-.2-.1 0-.2.1-.3.1-.4.2-.5.7-.5 1.1l.1.5c-1 .4-1.9 1.2-2.3 2.2-.7-.2-1.4-.3-2.2-.1-.2 0-.4.1-.6.2-.1-.5-.6-.8-1.1-.7-.3.1-.6.3-.7.6l-.3 1-1 .3c-.4.1-.7.5-.7.9s.3.8.7 1l.3.1c-.2.7-.2 1.3 0 2-.7.5-1 1.4-.8 2.3.2 1.1 1.1 1.8 2.2 1.8l2.4 8c.5 2.3 2.7 3.8 5 3.3l20.6-4.2c2.3-.5 3.8-2.7 3.3-5l-1-8.5c.4-.4.7-1.3.5-2.2zm-5.1-4.3c.2 0 .4 0 .5.2.2.1.3.3.3.5l.3 2.2-2.6.5.7-3.3.8-.1zm-5.7-10.3c.2-.8.6-1.5 1.3-1.9.7-.5 1.5-.6 2.3-.4 1.6.3 2.7 2 2.4 3.7l-2.6 12.6-2.7.5c.2-.2.4-.3.5-.5.2-.2.1-.4 0-.6-.1-.2-.4-.1-.6 0-.9 1-2.2 1.5-3.5 1.4 0-.1-.1-.2-.2-.3l.6-2.9c.6.1 1.1 0 1.7 0 1.1-.2 2.1-.8 2.8-1.6.2-.2.1-.4 0-.6-.1-.2-.4-.1-.6 0-.9 1.1-2.4 1.6-3.7 1.4l.7-3.3c.6.1 1.1 0 1.7 0 1.1-.2 2.1-.8 2.8-1.6.2-.2.1-.4 0-.6-.1-.2-.4-.1-.6 0-.9 1.1-2.4 1.6-3.7 1.4l.7-3.3c.6.1 1.1 0 1.7 0 1.1-.2 2.1-.8 2.8-1.6.2-.2.1-.4 0-.6-.1-.2-.4-.1-.6 0-.9 1.1-2.4 1.6-3.7 1.4l.5-2.6zm-6.2 13.8c1.3-.3 2.5.5 2.8 1.8.3 1.3-.5 2.5-1.8 2.8-1.3.3-2.5-.5-2.8-1.8-.3-1.3.5-2.5 1.8-2.8zm3.4-4.7l-.4 1.8-.6 2.7c-.1-.1-.2-.1-.3-.2l-.8-4 2.1-.3zm-5.6-5.9c.8-.2 1.5.3 1.7 1.1l1.8 8.7c-.5-.1-1-.2-1.4 0-.5.1-.9.3-1.3.6l-1.8-8.7c-.2-.7.3-1.5 1-1.7zm-4.5 7.7s.1 0 0 0h.2l1.1 1 1.4-.3c.2 0 .3.2.2.3l-1 1.1.3 1.4c0 .1 0 .2-.1.2h-.2l-1.1-1-1.4.3c-.1 0-.2 0-.2-.1v-.2l1-1.1-.3-1.4c.1-.1.1-.2.1-.2zm-1.1 2l-.1.2c-.3.3-.3.8-.1 1.2.2.3.6.5 1.1.5l1-.3.8.7c.2.2.5.3.8.2.1 0 .2-.1.3-.1.4-.2.5-.7.5-1.1l-.3-1 .3-.3c.6.4 1.1.9 1.3 1.6-.3.5-.5 1.2-.5 1.9l-4 .8c-.3-1.3-1.2-2.4-2.4-2.9.4-.6.8-1.1 1.3-1.4zm.4 4.4l-5.2 1.1.3-.9 1-.3c.4-.1.7-.5.7-.9s-.3-.8-.7-1l-1-.3v-.2c.2 0 .3-.1.5-.2 2-.3 3.9.8 4.4 2.7zm-8.2-1.1c0-.1 0-.1.1-.2l1.4-.4.5-1.4.1-.1c.1 0 .2 0 .2.1l.4 1.4 1.4.5c.1 0 .1.1.1.2s0 .1-.1.2l-1.4.4-.5 1.4-.1.1c-.1 0-.1 0-.2-.1l-.4-1.4-.6-.2h-.2l-.6-.2c0-.2-.1-.2-.1-.3zm1 1.5l.2.8c0 .1.1.2.2.3h-.4c-.1-.3-.1-.7 0-1.1zm31 7.7c.4 1.9-.8 3.7-2.7 4.1l-20.5 4.3c-1.9.4-3.7-.8-4.1-2.7l-2.3-7.9 1.5-.3 2.3 7.7c.2.8 1 1.3 1.9 1.2.9-.1 1.4-1 1.2-1.9l-2.3-7.7 2.6-.5 1.9 7.7c.2.8 1 1.4 1.9 1.2.8-.2 1.4-1 1.2-1.9l-1.9-7.7 2.6-.5 1.6 7.8c.2.8 1 1.4 1.9 1.2.8-.2 1.4-1 1.2-1.9l-1.6-7.8 2.6-.5 1.3 7.8c.2.8 1 1.4 1.9 1.2.8-.2 1.4-1 1.2-1.9l-1.3-7.8 2.6-.5.9 7.9c.2.8 1 1.4 1.9 1.2.9-.2 1.4-1 1.2-1.8l-.9-7.9 1.3-.3h.2l.7 8.2zm-25.9-2.9l2.3 7.7c.1.4-.2.8-.6.9-.4.1-.8-.2-.9-.6l-2.3-7.7 1.5-.3zm5.7-1.2l1.9 7.7c.1.4-.2.8-.6.9-.4.1-.8-.2-.9-.6l-1.9-7.7 1.5-.3zm4.1-.9l1.5-.3 1.6 7.8c.1.4-.2.8-.6.9-.4.1-.8-.2-.9-.6l-1.6-7.8zm5.7-1.1l1.5-.3 1.3 7.8c.1.4-.2.8-.6.9-.4.1-.8-.2-.9-.6l-1.3-7.8zm5.6-1.2l1.5-.3.9 7.9c.1.4-.2.8-.6.9-.4.1-.8-.2-.9-.6l-.9-7.9zm3.5-1.6l-28.8 5.9c-.8.2-1.6-.3-1.8-1.1-.2-.8.3-1.6 1.1-1.8l11.8-2.4c.5 1.5 2.1 2.4 3.6 2.1 1.6-.3 2.6-1.8 2.5-3.3l10.9-2.2c.8-.2 1.6.3 1.8 1.1.2.8-.3 1.6-1.1 1.7z"/><path fill="#4A4A4A" d="M162.973 61.603c.9-.2 1.5-1.1 1.3-2-.2-.9-1.1-1.5-2-1.3-.9.2-1.5 1.1-1.3 2 .2.9 1.1 1.5 2 1.3zm-.5-2.5c.5-.1.9.2 1.1.7.1.5-.2.9-.7 1.1-.5.1-.9-.2-1.1-.7-.1-.6.2-1.1.7-1.1zM104.973 156.903l9.5-8.7c.2-.2.2-.5 0-.6-.2-.1-.5-.2-.6 0l-9.5 8.7c-.2.2-.2.5 0 .6.1.1.3.2.5.1l.1-.1zM106.573 159.503c.1.1.3.2.5.1.1 0 .1 0 .2-.1l9.5-8.7c.2-.2.2-.5 0-.6-.2-.1-.5-.2-.6 0l-9.5 8.7c-.3.1-.3.4-.1.6zM114.473 155.903l-5.8 5.4c-.2.2-.2.5 0 .6.1.1.3.2.5.1.1 0 .1 0 .2-.1l5.8-5.4c.2-.2.2-.5 0-.6-.2-.2-.5-.2-.7 0zM129.373 147.903c-.7-.2-1.4-.1-2.1.1-1.5.4-2.6 1.6-2.9 3.2-.3 1.1 0 2.2.6 3.2.6.9 1.6 1.6 2.6 1.9.7.1 1.4.1 2.1-.1 1.5-.4 2.6-1.6 2.9-3.2.5-2.4-.9-4.6-3.2-5.1zm2.3 4.8c-.3 1.2-1.1 2.1-2.3 2.4-.5.2-1.1.2-1.6 0-.8-.2-1.6-.7-2.1-1.4s-.6-1.6-.5-2.5c.3-1.2 1.1-2.1 2.3-2.4.5-.2 1.1-.2 1.6 0 1.9.4 3 2.2 2.6 3.9z"/><path fill="#4A4A4A" d="M130.273 143.603c-1.4-.3-2.8-.3-4.2.1-1.9.5-3.6 1.8-4.7 3.4l-2.8-.3-4-4.4c-.2-.2-.5-.2-.6 0l-3.6 3.4-1.7-.2c-.3 0-.5 0-.6-.1-.3 0-.5-.1-.9.1-.4.3-.5.4-.7 1.1l-1.5 4.1-5.6 5.1c-.2.2-.2.5 0 .6l2.4 2.6-1.3 3.4v.4l9.8 16.4c.1.2.3.3.5.2h.1c.1 0 .1-.1.2-.2l9.4-5.6-.5 2.3c-.4 1.7.7 3.4 2.4 3.8.5.1 1.1.1 1.6 0 1.1-.3 1.9-1.2 2.2-2.3l1.6.3c.3.1.7.1 1.1 0 .8-.2 1.3-.8 1.5-1.6.1-.6 0-1.1-.3-1.6s-.8-.8-1.4-1l-1.6-.3.4-1.8 1.6.3c.3.1.7.1 1.1 0 .8-.2 1.3-.8 1.5-1.6.2-1-.3-1.9-1.1-2.4l4.6-2.7c.2-.1.3-.4.2-.6l-2.8-4.7c2.1-1.2 3.7-3.2 4.3-5.7.9-4.9-2-9.4-6.6-10.5zm-9.4 4.5c-.1.3-.3.6-.4.9l-1-1.1 1.4.2zm-13.7-.8l.1-.3c.2-.6.2-.6.3-.7h.3c.2 0 .4 0 .7.1l.9.1-3.1 2.9.8-2.1zm-1.6 4.1l8.7-8 6 6.5c0 .1 0 .2-.1.3-.5 2.4 0 4.9 1.5 6.9l-1.6 4.7-1.7-.3c-.3 0-.5 0-.6-.1-.3 0-.5-.1-.9.1-.4.3-.5.4-.7 1.1l-.6 1.9-8.7-1.3-6.4-6.9 5.1-4.9zm17.4 10.8l-2.1-.4 1.3-3.9c.4.5.9.8 1.4 1.2l-.6 3.1zm-16.8 1.8c.1.1.3.1.4.1l8.4 1.3-4.4 12.5-8.8-14.6 4.4.7zm-1-1.1l-3.7-.5.9-2.4 2.8 2.9zm6.4 15.1l5.2-14.7.1-.3c.2-.6.2-.6.3-.7h.3c.2 0 .4 0 .7.1l4.7.7-2 9.3-9.3 5.6zm18-10.8l-.1.1-1.1-.2.6-3 4.5.7-3.9 2.4zm2.1-7.3l2.3 3.9-4.7-.7.5-2.6c.3 0 .6-.1.9-.2.5-.2.8-.3 1-.4zm4.3-6.2c-.6 2.7-2.6 4.9-5.3 5.7-.4.1-.8.2-1.1.3-.2 0-.3.2-.4.4l-1.6 7.3c0 .3.1.5.3.5l2 .5c.7.2 1.1.8 1 1.5-.1.5-.4.8-.9 1-.2 0-.4.1-.6 0l-2-.5c-.3 0-.5.1-.5.3l-.6 2.7c0 .3.1.5.3.5l2 .5c.3.1.6.3.8.5.2.2.3.6.2 1-.1.5-.4.8-.9 1-.2 0-.4.1-.6 0l-2-.5c-.3 0-.5.1-.5.3l-.1.4c-.2.8-.8 1.5-1.6 1.7-.3.1-.7.1-1.1 0-1.2-.3-2-1.5-1.7-2.7l2.9-13.3.8-3.8c0-.2 0-.4-.2-.5-2.7-1.7-4.1-5-3.4-8.1 0-.2.1-.3.1-.5.7-2.5 2.7-4.5 5.2-5.2 1.2-.3 2.5-.4 3.7-.1 2 .4 3.7 1.6 4.8 3.3 1.1 1.7 1.4 3.7 1 5.8z"/></g><defs><clipPath id="clip0"><path fill="#fff" d="M0 0h226.6v180H0z" transform="translate(.373 .003)"/></clipPath></defs></svg>